# Blender 4.5.0
# www.blender.org
mtllib Chair.mtl
o Cube
v -0.223110 0.450000 0.202500
v -0.223110 0.400000 -0.157500
v 0.203278 0.450000 0.202500
v 0.203278 0.400000 -0.157500
v -0.223110 0.450000 -0.202500
v -0.223110 0.400000 -0.202500
v 0.203278 0.400000 -0.202500
v 0.203278 0.450000 -0.202500
v -0.223110 0.900000 -0.252500
v 0.203278 0.900000 -0.252500
v 0.203278 0.000000 -0.207500
v -0.223110 0.000000 -0.207500
v 0.203278 0.000000 -0.252500
v -0.223110 0.000000 -0.252500
v -0.223110 0.400000 0.247500
v 0.203278 0.400000 0.247500
v -0.223110 0.000000 0.202500
v 0.203278 0.000000 0.202500
v -0.223110 0.000000 0.247500
v 0.203278 0.000000 0.247500
v 0.207741 0.400000 -0.157500
v 0.207741 0.400000 0.202500
v 0.207741 0.450000 0.202500
v 0.207741 0.450000 -0.202500
v 0.207741 0.400000 -0.202500
v 0.207741 0.900000 -0.207500
v 0.207741 0.900000 -0.252500
v 0.207741 0.400000 0.247500
v 0.207741 0.000000 0.202500
v 0.207741 0.000000 0.247500
v 0.226890 0.400000 -0.157500
v 0.226890 0.400000 0.202500
v 0.226890 0.450000 0.202500
v 0.226890 0.450000 -0.202500
v 0.226890 0.400000 -0.202500
v 0.226890 0.900000 -0.207500
v 0.226890 0.900000 -0.252500
v 0.226890 0.400000 0.247500
v 0.226890 0.000000 0.202500
v 0.226890 0.000000 0.247500
v -0.223110 0.410000 0.247500
v -0.223110 0.450000 0.207500
v -0.223110 0.430000 0.242141
v -0.223110 0.444641 0.227500
v 0.203278 0.450000 0.207500
v 0.203278 0.410000 0.247500
v 0.203278 0.444641 0.227500
v 0.203278 0.430000 0.242141
v -0.223110 0.450000 -0.117500
v -0.223110 0.490000 -0.157500
v -0.223110 0.450000 -0.197500
v -0.223110 0.410000 -0.157500
v -0.223110 0.455359 -0.137500
v -0.223110 0.470000 -0.152141
v 0.203278 0.490000 -0.157500
v 0.203278 0.450000 -0.117500
v 0.207693 0.450000 -0.157500
v 0.203278 0.470000 -0.152141
v 0.203278 0.455359 -0.137500
v -0.223110 0.400000 0.162500
v -0.223110 0.360000 0.202500
v -0.223110 0.400000 0.242500
v -0.223110 0.440000 0.202500
v -0.223110 0.394641 0.182500
v -0.223110 0.380000 0.197141
v 0.203278 0.360000 0.202500
v 0.203278 0.400000 0.162500
v 0.207693 0.400000 0.202500
v 0.203278 0.380000 0.197141
v 0.203278 0.394641 0.182500
v 0.207741 0.410000 0.247500
v 0.207741 0.450000 0.207500
v 0.203474 0.431161 0.242804
v 0.203474 0.445802 0.228163
v 0.226890 0.450000 0.207500
v 0.226890 0.410000 0.247500
v 0.226890 0.444641 0.227500
v 0.226890 0.430000 0.242141
v 0.207741 0.450000 -0.117500
v 0.207741 0.490000 -0.157500
v 0.207741 0.450000 -0.157500
v 0.207741 0.455359 -0.137500
v 0.207741 0.470000 -0.152141
v 0.226890 0.490000 -0.157500
v 0.226890 0.450000 -0.117500
v 0.226890 0.410000 -0.157500
v 0.226890 0.450000 -0.197500
v 0.226890 0.470000 -0.152141
v 0.226890 0.455359 -0.137500
v 0.207693 0.450000 0.247500
v 0.207693 0.450000 0.247500
v 0.203289 0.444654 0.227547
v 0.203289 0.430047 0.242154
v 0.207693 0.450000 0.247500
v 0.207693 0.450000 0.247500
v 0.203474 0.451161 0.248163
v 0.203474 0.451161 0.248163
v 0.203474 0.431209 0.242817
v 0.203474 0.445815 0.228211
v 0.203474 0.451161 0.248163
v 0.203474 0.451161 0.248163
v -0.223110 0.890074 -0.206289
v -0.223110 0.900000 -0.217500
v 0.203278 0.900000 -0.217500
v 0.203278 0.890074 -0.206289
v 0.207693 0.900000 -0.207500
vn -0.0000 -0.0000 -1.0000
vn 1.0000 -0.0000 -0.0000
vn -0.0000 -0.1104 -0.9939
vn -0.0000 -1.0000 -0.0000
vn -0.0000 -0.1240 0.9923
vn -0.0000 0.1240 -0.9923
vn -1.0000 -0.0000 -0.0000
vn -0.0000 -0.0000 1.0000
vn -0.0000 1.0000 -0.0000
vn -0.0000 0.9659 0.2588
vn -0.0000 0.7071 0.7071
vn -0.0000 0.2588 0.9659
vn 0.9199 0.1015 0.3789
vn 0.9710 0.1690 0.1690
vn 0.9199 0.3789 0.1015
vn 0.9199 -0.1015 -0.3789
vn 0.9710 -0.1690 -0.1690
vn 0.9199 -0.3789 -0.1015
vn -0.0000 -0.9659 -0.2588
vn -0.0000 -0.7071 -0.7071
vn -0.0000 -0.2588 -0.9659
vn 0.0216 0.2394 0.9707
vn 0.0550 0.7060 0.7060
vn 0.0301 0.9723 0.2317
vn -0.0000 0.1211 0.9926
vn -0.9710 0.1690 0.1690
vn -0.6494 0.7604 -0.0008
vn -0.9199 0.3789 0.1015
vn -0.2586 -0.0003 0.9660
vn -0.9711 0.1689 0.1689
vn -0.9199 0.1015 0.3789
vn 0.9200 0.1015 -0.3787
vn 0.9106 -0.3991 0.1070
vn -0.8323 0.4150 0.3674
vn -0.0000 0.7487 0.6629
vn -0.0000 0.1154 0.9933
vt 0.375000 0.500000
vt 0.625000 0.500000
vt 0.375000 0.250000
vt 0.625000 0.250000
vt 0.125000 0.500000
vt 0.125000 0.750000
vt 0.375000 0.750000
vt 0.375000 1.000000
vt 0.625000 0.750000
vt 0.875000 0.750000
vt 0.875000 0.750000
vt 0.625000 0.750000
vt 0.625000 1.000000
vt 0.525000 1.000000
vt 0.525000 0.750000
vt 0.425000 1.000000
vt 0.425000 0.750000
vt 0.625000 0.750000
vt 0.625000 0.222222
vt 0.625000 0.236111
vt 0.625000 0.246279
vt 0.425000 0.250000
vt 0.625000 0.500000
vt 0.875000 0.527778
vt 0.625000 0.527778
vt 0.625000 0.513889
vt 0.875000 0.513889
vt 0.625000 0.500000
vt 0.875000 0.500000
vt 0.375000 0.023727
vt 0.375000 0.000000
vt 0.375000 0.000000
vt 0.547346 0.000000
vt 0.375000 0.750000
vt 0.125000 0.722222
vt 0.375000 0.722222
vt 0.375000 0.736111
vt 0.125000 0.736111
vt 0.375000 0.750000
vt 0.125000 0.750000
vt 0.625000 0.000000
vt 0.425000 0.000000
vt 0.525000 0.000000
vt 0.598205 0.000000
vt 0.425000 0.750000
vt 0.525000 0.750000
vt 0.606491 0.750000
vt 0.625000 0.750000
vt 0.625000 0.513889
vt 0.625000 0.503721
vt 0.625000 0.500000
vt 0.625000 0.503170
vt 0.625000 0.524877
vt 0.425000 0.500000
vt 0.598268 0.750000
vt 0.525236 0.750000
vt 0.525242 0.750000
vt 0.598270 0.750000
vt 0.598205 0.750000
vt 0.875000 0.500000
vt 0.875000 0.500000
s 0
f 7/1/1 8/2/1 24/2/1 25/1/1
f 6/3/1 5/4/1 8/2/1 7/1/1
f 7/1/2 4/1/2 11/1/2 13/1/2
f 8/2/3 5/4/3 9/4/3 10/2/3
f 11/1/4 12/5/4 14/5/4 13/1/4
f 4/1/5 2/5/5 12/5/5 11/1/5
f 6/3/6 7/1/6 13/1/6 14/3/6
f 2/3/7 6/3/7 14/3/7 12/3/7
f 17/6/4 18/7/4 20/7/4 19/6/4
f 16/7/8 15/8/8 19/8/8 20/7/8
f 30/7/4 29/7/4 39/7/4 40/7/4
f 21/1/4 25/1/4 35/1/4 31/1/4
f 24/2/3 27/2/3 37/2/3 34/2/3
f 4/1/4 7/1/4 25/1/4 21/1/4
f 8/2/3 10/2/3 27/2/3 24/2/3
f 16/7/8 20/7/8 30/7/8 28/7/8
f 20/7/4 18/7/4 29/7/4 30/7/4
f 32/7/2 38/7/2 40/7/2 39/7/2
f 27/2/9 26/2/9 36/2/9 37/2/9
f 29/7/1 22/7/1 32/7/1 39/7/1
f 25/1/1 24/2/1 34/2/1 35/1/1
f 22/7/4 21/1/4 31/1/4 32/7/4
f 28/7/8 30/7/8 40/7/8 38/7/8
f 45/9/10 42/10/10 44/11/10 47/12/10
f 47/12/11 44/13/11 43/14/11 48/15/11
f 48/15/12 43/14/12 41/16/12 46/17/12
f 16/7/8 46/17/8 41/16/8 15/8/8
f 3/18/9 1/11/9 42/10/9 45/9/9
f 49/19/7 53/20/7 54/21/7 50/4/7 51/4/7 52/22/7
f 55/23/13 58/2/13 57/2/13
f 58/2/14 59/2/14 57/2/14
f 59/2/15 56/2/15 57/2/15
f 49/24/10 56/25/10 59/26/10 53/27/10
f 53/27/11 59/26/11 58/28/11 54/29/11
f 54/29/12 58/28/12 55/23/12 50/29/12
f 56/25/9 49/24/9 1/11/9 3/18/9
f 2/3/7 52/22/7 51/4/7 5/4/7 6/3/7
f 60/30/7 64/31/7 65/31/7 61/32/7 62/31/7 63/33/7
f 66/34/16 69/7/16 68/7/16
f 69/7/17 70/7/17 68/7/17
f 70/7/18 67/7/18 68/7/18
f 60/35/19 67/36/19 70/37/19 64/38/19
f 64/38/20 70/37/20 69/39/20 65/40/20
f 65/40/21 69/39/21 66/34/21 61/6/21
f 60/30/7 63/33/7 1/41/7 49/19/7 52/22/7 2/3/7
f 61/6/1 66/34/1 18/7/1 17/6/1
f 1/41/7 63/33/7 62/31/7 15/31/7 41/42/7 43/43/7 44/44/7 42/41/7
f 15/31/7 62/31/7 61/32/7 17/31/7 19/31/7
f 2/5/4 4/1/4 67/36/4 60/35/4
f 68/7/4 67/36/4 4/1/4 21/1/4 22/7/4
f 18/7/1 66/34/1 68/7/1 22/7/1 29/7/1
f 71/45/22 76/17/22 78/15/22 73/46/22
f 73/46/23 78/15/23 77/47/23 74/9/23
f 74/9/24 77/47/24 75/12/24 72/48/24
f 71/45/8 28/7/8 38/7/8 76/17/8
f 23/18/9 72/48/9 75/12/9 33/18/9
f 32/7/2 33/18/2 75/12/2 77/47/2 78/15/2 76/17/2 38/7/2
f 79/25/7 82/49/7 81/2/7
f 82/49/7 83/50/7 81/2/7
f 83/50/7 80/2/7 81/2/7
f 84/23/2 88/51/2 89/52/2 85/53/2 86/54/2 87/28/2
f 84/23/12 80/23/12 83/2/12 88/51/12
f 88/51/11 83/2/11 82/49/11 89/52/11
f 89/52/10 82/49/10 79/25/10 85/53/10
f 57/2/9 56/25/9 3/18/9 23/18/9 79/25/9 81/2/9
f 79/25/9 23/18/9 33/18/9 85/53/9
f 26/2/25 80/23/25 84/23/25 36/2/25
f 87/28/2 86/54/2 31/1/2 35/1/2 34/2/2
f 31/1/2 86/54/2 85/53/2 33/18/2 32/7/2
f 84/23/2 87/28/2 34/2/2 37/2/2 36/2/2
f 90/18/26 94/12/26 95/12/26 91/18/26 92/55/26 93/56/26
f 96/9/2 100/18/2 101/18/2 97/18/2 98/57/2 99/58/2
f 96/9/2 91/18/2 95/12/2 100/18/2
f 100/18/7 95/12/7 94/12/7 101/18/7
f 101/18/7 94/12/7 90/18/7 97/18/7
f 3/18/27 45/9/27 91/18/27 96/9/27 72/48/27 23/18/27
f 45/9/28 47/59/28 92/55/28 91/18/28
f 90/18/29 46/17/29 16/7/29 28/7/29 71/45/29 97/18/29
f 47/59/30 48/15/30 93/56/30 92/55/30
f 48/15/31 46/17/31 90/18/31 93/56/31
f 71/45/32 73/15/32 98/57/32 97/18/32
f 73/15/2 74/59/2 99/58/2 98/57/2
f 74/59/33 72/18/33 96/9/33 99/58/33
f 104/2/34 105/2/34 106/2/34
f 102/60/35 105/2/35 104/2/35 103/61/35
f 50/29/25 55/23/25 105/2/25 102/60/25
f 103/61/9 104/2/9 10/2/9 9/29/9
f 5/4/7 51/4/7 50/4/7 102/4/7 103/4/7 9/4/7
f 106/2/36 105/2/36 55/23/36 57/2/36 81/2/36 80/23/36 26/2/36
f 10/2/9 104/2/9 106/2/9 26/2/9 27/2/9
