# Blender 4.5.0
# www.blender.org
mtllib Untitled.mtl
o Cube
v -1.000000 0.000000 1.000000
v -1.000000 2.000000 1.000000
v -1.000000 0.000000 -1.000000
v -1.000000 2.000000 -1.000000
v 1.000000 0.400000 0.600000
v 1.000000 1.600000 0.600000
v 1.000000 0.400000 -0.600000
v 1.000000 1.600000 -0.600000
v -1.000000 2.000000 1.000000
v -1.000000 2.000000 -1.000000
v 1.000000 2.000000 -1.000000
v 1.000000 2.000000 1.000000
v -1.000000 2.000000 1.000000
v -1.000000 2.000000 -1.000000
v 1.000000 2.000000 -1.000000
v 1.000000 2.000000 1.000000
v 1.000000 2.000000 -1.000000
v 1.000000 0.000000 -1.000000
v 1.000000 0.000000 1.000000
v 1.000000 2.000000 1.000000
v 1.000000 1.600000 -0.600000
v 1.000000 0.400000 -0.600000
v 1.000000 0.400000 0.600000
v 1.000000 1.600000 0.600000
v 0.500000 1.600000 -0.600000
v 0.500000 0.400000 -0.600000
v 0.500000 0.400000 0.600000
v 0.500000 1.600000 0.600000
v -1.000000 2.500000 1.000000
v -1.000000 2.500000 -1.000000
v 1.000000 2.500000 -1.000000
v 1.000000 2.500000 1.000000
v -1.000000 4.500000 1.000000
v -1.000000 2.000000 -2.566159
v 2.107442 2.000000 -2.107442
v 2.566159 2.000000 1.000000
v -1.000000 2.500000 -2.566159
v 2.107442 2.500000 -2.107442
v 2.566159 2.500000 1.000000
v 0.500000 4.500000 -1.000000
v 1.000000 4.000000 -1.000000
v 0.750000 4.433013 -1.000000
v 0.933013 4.250000 -1.000000
v 1.000000 4.000000 1.000000
v 0.500000 4.500000 1.000000
v 0.933013 4.250000 1.000000
v 0.750000 4.433013 1.000000
v -0.500000 4.500000 -1.000000
v -1.000000 4.000000 -1.000000
v -1.000000 4.500000 -0.500000
v -0.745412 4.425811 -1.000000
v -0.745412 4.500000 -0.925811
v -0.858646 4.441356 -0.941356
v -1.000000 4.245412 -0.925811
v -0.925811 4.245412 -1.000000
v -0.941356 4.358646 -0.941356
v -0.925811 4.500000 -0.745412
v -1.000000 4.425811 -0.745412
v -0.941356 4.441356 -0.858646
v -1.000000 0.666667 1.000000
v -1.000000 1.333333 1.000000
v -1.000000 1.333333 -1.000000
v -1.000000 0.666667 -1.000000
v 1.000000 1.333333 -1.000000
v 1.000000 0.666667 -1.000000
v 1.000000 1.333333 1.000000
v 1.000000 0.666667 1.000000
v 1.000000 1.200000 -0.600000
v 1.000000 0.800000 -0.600000
v 1.000000 1.200000 0.600000
v 1.000000 0.800000 0.600000
v 1.000000 1.200000 -0.600000
v 1.000000 0.800000 -0.600000
v 1.000000 1.200000 0.600000
v 1.000000 0.800000 0.600000
v 0.500000 1.200000 -0.600000
v 0.500000 0.800000 -0.600000
v 0.500000 1.200000 0.600000
v 0.500000 0.800000 0.600000
v -1.286074 0.666667 1.286074
v -1.286074 1.333333 1.286074
v -1.286074 1.333333 -1.286074
v -1.286074 0.666667 -1.286074
v 1.251793 1.333333 -1.316665
v 1.251793 0.666667 -1.316664
v 1.251793 1.333333 1.316665
v 1.251793 0.666667 1.316664
v 1.404569 1.200000 -0.600000
v 1.404569 0.800000 -0.600000
v 1.404569 1.200000 0.600000
v 1.404569 0.800000 0.600000
v 1.000000 1.200000 -0.195431
v 1.000000 0.800000 -0.195431
v 1.000000 1.200000 0.195431
v 1.000000 0.800000 0.195431
v 0.786074 1.200000 -0.313926
v 0.786074 0.800000 -0.313926
v 0.786074 1.200000 0.313926
v 0.786074 0.800000 0.313926
v 1.000000 2.770843 0.035299
v 1.000000 3.335318 0.687796
v 1.000000 3.723388 0.414606
v 1.000000 3.467510 0.000027
v 1.000000 3.716097 -0.340112
v 1.000000 3.416734 -0.658632
v 1.300000 2.770843 0.035299
v 1.300000 3.335318 0.687796
v 1.300000 3.723388 0.414606
v 1.300000 3.467510 0.000027
v 1.300000 3.716097 -0.340112
v 1.300000 3.416734 -0.658632
vn -1.0000 -0.0000 -0.0000
vn -0.0000 -0.0000 -1.0000
vn -0.0000 1.0000 -0.0000
vn -0.0000 -0.0000 1.0000
vn -0.0000 -1.0000 -0.0000
vn 1.0000 -0.0000 -0.0000
vn 0.9893 -0.0000 -0.1460
vn 0.1460 -0.0000 -0.9893
vn 0.2588 0.9659 -0.0000
vn 0.7071 0.7071 -0.0000
vn 0.9659 0.2588 -0.0000
vn -0.2253 0.6889 -0.6889
vn -0.3829 0.3829 -0.8407
vn -0.6889 0.2253 -0.6889
vn -0.8407 0.3829 -0.3829
vn -0.6889 0.6889 -0.2253
vn -0.3829 0.8407 -0.3829
vn -0.5773 0.5774 -0.5773
vn 0.1049 0.9704 -0.2174
vn 0.1049 -0.9704 -0.2174
vn -0.4845 -0.0000 -0.8748
vn -0.4845 -0.0000 0.8748
vn 0.7071 -0.0000 -0.7071
vn 0.7071 -0.0000 0.7071
vn 0.9780 -0.0000 0.2085
vn 0.9780 -0.0000 -0.2085
vn -0.0121 -0.0000 0.9999
vn -0.0121 -0.0000 -0.9999
vn 0.1049 0.9704 0.2174
vn 0.1049 -0.9704 0.2174
vn -0.0000 -0.7563 0.6543
vn -0.0000 -0.7320 -0.6813
vn -0.0000 0.8074 0.5901
vn -0.0000 0.5756 0.8177
vn -0.0000 0.7287 -0.6849
vn -0.0000 0.8510 -0.5252
vt 0.541667 0.000000
vt 0.625000 0.000000
vt 0.625000 0.250000
vt 0.541667 0.250000
vt 0.625000 0.500000
vt 0.541667 0.500000
vt 0.575000 0.550000
vt 0.575000 0.700000
vt 0.541667 0.750000
vt 0.625000 0.750000
vt 0.625000 1.000000
vt 0.541667 1.000000
vt 0.125000 0.500000
vt 0.375000 0.500000
vt 0.375000 0.750000
vt 0.125000 0.750000
vt 0.475000 0.550000
vt 0.425000 0.550000
vt 0.458333 0.500000
vt 0.425000 0.700000
vt 0.525000 0.700000
vt 0.525000 0.550000
vt 0.475000 0.700000
vt 0.654490 0.466990
vt 0.654490 0.783010
vt 0.631506 0.774744
vt 0.631506 0.475256
vt 0.625000 0.756630
vt 0.625000 0.493370
vt 0.625000 0.750000
vt 0.625000 0.542671
vt 0.625000 0.629412
vt 0.625000 0.710975
vt 0.634830 0.322330
vt 0.629258 0.286085
vt 0.627779 0.270448
vt 0.630005 0.286829
vt 0.625733 0.260010
vt 0.625000 0.250000
vt 0.625000 0.240726
vt 0.625000 0.218177
vt 0.625000 0.232331
vt 0.875000 0.562500
vt 0.864094 0.531066
vt 0.842367 0.480423
vt 0.875000 0.531823
vt 0.837574 0.504515
vt 0.854220 0.498686
vt 0.625653 0.257986
vt 0.801497 0.488997
vt 0.875000 0.750000
vt 0.625000 0.187500
vt 0.475000 0.550000
vt 0.458333 0.250000
vt 0.458333 0.000000
vt 0.458333 0.750000
vt 0.458333 1.000000
vt 0.375000 1.000000
vt 0.375000 0.250000
vt 0.375000 0.000000
vt 0.625000 0.676826
vt 0.625000 0.625003
vt 0.625000 0.582486
s 0
f 61/1/1 2/2/1 4/3/1 62/4/1
f 62/4/2 4/3/2 17/5/2 64/6/2
f 8/7/3 6/8/3 24/8/3 21/7/3
f 66/9/4 20/10/4 2/11/4 61/12/4
f 3/13/5 18/14/5 19/15/5 1/16/5
f 20/10/3 17/5/3 11/5/3 12/10/3
f 12/10/3 11/5/3 15/5/3 16/10/3
f 4/3/3 2/2/3 9/2/3 10/3/3
f 2/11/3 20/10/3 12/10/3 9/11/3
f 17/5/3 4/3/3 10/3/3 11/5/3
f 32/10/4 16/10/4 36/10/4 39/10/4
f 10/3/3 9/2/3 13/2/3 14/3/3
f 9/11/3 12/10/3 16/10/3 13/11/3
f 11/5/3 10/3/3 14/3/3 15/5/3
f 69/17/6 7/18/6 18/14/6 65/19/6
f 7/18/6 5/20/6 19/15/6 18/14/6
f 6/8/6 8/7/6 17/5/6 20/10/6
f 70/21/6 6/8/6 20/10/6 66/9/6
f 21/7/5 24/8/5 28/8/5 25/7/5
f 68/22/3 8/7/3 21/7/3 72/22/3
f 71/23/3 5/20/3 23/20/3 75/23/3
f 5/20/3 7/18/3 22/18/3 23/20/3
f 76/22/6 25/7/6 28/8/6 78/21/6
f 72/22/4 21/7/4 25/7/4 76/22/4
f 75/23/2 23/20/2 27/20/2 79/23/2
f 23/20/3 22/18/3 26/18/3 27/20/3
f 14/3/1 13/2/1 29/2/1 30/3/1
f 13/11/4 16/10/4 32/10/4 29/11/4
f 14/3/1 30/3/1 37/3/1 34/3/1
f 36/10/7 35/5/7 38/5/7 39/10/7
f 35/5/8 34/3/8 37/3/8 38/5/8
f 16/10/5 15/5/5 35/5/5 36/10/5
f 30/3/3 31/5/3 38/5/3 37/3/3
f 15/5/5 14/3/5 34/3/5 35/5/5
s 1
f 31/5/3 32/10/3 39/10/3 38/5/3
s 0
f 40/24/9 45/25/9 47/26/9 42/27/9
f 42/27/10 47/26/10 46/28/10 43/29/10
f 43/29/11 46/28/11 44/30/11 41/5/11
f 32/10/6 31/5/6 41/5/6 105/31/6 100/32/6 101/33/6 44/30/6
f 29/11/4 32/10/4 44/30/4 46/28/4 47/26/4 45/25/4 33/11/4
f 48/34/12 51/35/12 53/36/12 52/37/12
f 51/35/13 55/38/13 56/3/13 53/36/13
f 49/39/14 54/40/14 56/3/14 55/38/14
f 54/40/15 58/41/15 59/42/15 56/3/15
f 50/43/16 57/44/16 59/45/16 58/46/16
f 57/44/17 52/47/17 53/48/17 59/45/17
f 53/48/18 56/49/18 59/45/18
f 40/24/3 48/50/3 52/47/3 57/44/3 50/43/3 33/51/3 45/25/3
f 30/3/1 29/2/1 33/2/1 50/52/1 58/41/1 54/40/1 49/39/1
f 31/5/2 30/3/2 49/39/2 55/38/2 51/35/2 48/34/2 40/24/2 42/27/2 43/29/2 41/5/2
f 24/8/2 74/21/2 78/21/2 28/8/2
f 70/21/19 66/9/19 86/9/19 90/21/19
f 22/18/4 73/53/4 77/53/4 26/18/4
f 63/54/5 60/55/5 80/55/5 83/54/5
f 26/18/6 77/53/6 79/23/6 27/20/6
f 72/22/3 76/22/3 96/22/3 92/22/3
f 6/8/3 70/21/3 74/21/3 24/8/3
f 67/56/20 71/23/20 91/23/20 87/56/20
f 7/18/3 69/17/3 73/53/3 22/18/3
f 62/4/3 64/6/3 84/6/3 82/4/3
f 5/20/6 71/23/6 67/56/6 19/15/6
f 77/53/5 73/53/5 93/53/5 97/53/5
f 8/7/6 68/22/6 64/6/6 17/5/6
f 68/22/3 72/22/3 92/22/3 88/22/3
f 19/15/4 67/56/4 60/57/4 1/58/4
f 65/19/5 63/54/5 83/54/5 85/19/5
f 3/59/2 63/54/2 65/19/2 18/14/2
f 75/23/5 79/23/5 99/23/5 95/23/5
f 1/60/1 60/55/1 63/54/1 3/59/1
f 73/53/5 69/17/5 89/17/5 93/53/5
f 94/21/21 95/23/21 99/23/21 98/21/21
f 93/53/22 92/22/22 96/22/22 97/53/22
f 97/53/6 96/22/6 98/21/6 99/23/6
f 90/21/23 91/23/23 95/23/23 94/21/23
f 89/17/24 88/22/24 92/22/24 93/53/24
f 91/23/25 90/21/25 86/9/25 87/56/25
f 88/22/26 89/17/26 85/19/26 84/6/26
f 87/56/27 86/9/27 81/12/27 80/57/27
f 83/54/28 82/4/28 84/6/28 85/19/28
f 80/55/1 81/1/1 82/4/1 83/54/1
f 79/23/5 77/53/5 97/53/5 99/23/5
f 61/1/3 62/4/3 82/4/3 81/1/3
f 64/6/29 68/22/29 88/22/29 84/6/29
f 76/22/3 78/21/3 98/21/3 96/22/3
f 69/17/30 65/19/30 85/19/30 89/17/30
f 74/21/3 70/21/3 90/21/3 94/21/3
f 60/57/5 67/56/5 87/56/5 80/57/5
f 71/23/5 75/23/5 95/23/5 91/23/5
f 78/21/3 74/21/3 94/21/3 98/21/3
f 66/9/3 61/12/3 81/12/3 86/9/3
f 44/30/6 101/33/6 102/61/6 103/62/6 104/63/6 105/31/6 41/5/6
f 101/33/31 100/32/31 106/32/31 107/33/31
f 110/63/6 109/62/6 108/61/6 107/33/6 106/32/6 111/31/6
f 100/32/32 105/31/32 111/31/32 106/32/32
f 104/63/33 103/62/33 109/62/33 110/63/33
f 102/61/34 101/33/34 107/33/34 108/61/34
f 105/31/35 104/63/35 110/63/35 111/31/35
f 103/62/36 102/61/36 108/61/36 109/62/36
